PathFileType	4	(X/Y/Z)	Patient4_TMGait_0pt4_03_left_21.trc.trc
DataRate	CameraRate	NumFrames	NumMarkers	Units	OrigDataRate	OrigDataStartFrame	OrigNumFrames
75.268817204301	75.268817204301	5	33	mm	75.268817204301	71	       141
Frame#	Time	Sacral			L.Shoulder			Chest			R.Shoulder			Neck			R.ASIS			L.ASIS			R.Thigh.Superior			R.Thigh.Lateral			R.Thigh.Inferior			R.Patella			L.Thigh.Superior			L.Thigh.Lateral			L.Thigh.Inferior			L.Patella			L.Shank.Superior			L.Shank.Lateral			L.Shank.Inferior			R.Shank.Superior			R.Shank.Lateral			R.Shank.Inferior			R.Heel			R.Midfoot.Superior			R.Midfoot.Lateral			R.Toe			L.Heel			L.Midfoot.Lateral			L.Midfoot.Superior			L.Toe			L.Elbow			L.Wrist			R.Elbow			R.Wrist			
		X1	Y1	Z1	X2	Y2	Z2	X3	Y3	Z3	X4	Y4	Z4	X5	Y5	Z5	X6	Y6	Z6	X7	Y7	Z7	X8	Y8	Z8	X9	Y9	Z9	X10	Y10	Z10	X11	Y11	Z11	X12	Y12	Z12	X13	Y13	Z13	X14	Y14	Z14	X15	Y15	Z15	X16	Y16	Z16	X17	Y17	Z17	X18	Y18	Z18	X19	Y19	Z19	X20	Y20	Z20	X21	Y21	Z21	X22	Y22	Z22	X23	Y23	Z23	X24	Y24	Z24	X25	Y25	Z25	X26	Y26	Z26	X27	Y27	Z27	X28	Y28	Z28	X29	Y29	Z29	X30	Y30	Z30	X31	Y31	Z31	X32	Y32	Z32	X33	Y33	Z33	

71	28.350000000000	879.599762575743	1013.379519345416	434.887767372712	1119.171343550213	1428.287180279878	271.514374447396	1188.841066277570	1353.933082431501	446.978824705171	1084.217078099903	1434.731493616068	605.959031315652	1079.620479618473	1493.173515933220	426.983103109224	1091.763962974642	946.164443960790	581.767448698427	1107.810426096605	953.381009809228	305.351428534263	1161.407489561073	766.055285917765	559.729879911892	1109.089981913075	649.513965385586	631.800888089487	1197.093787666423	606.393072869868	553.979728261056	1227.060446585094	524.987470607301	573.421309438425	1120.924831480896	733.360219843433	340.976640837049	1018.765836780524	632.468192907695	268.176154634097	1081.244662417912	543.341486348322	337.409041085792	1069.482374601457	475.217425493280	344.333043745373	1035.301763739228	407.796119142434	333.138800715406	934.450888168445	304.823734083000	280.670980412408	969.560394904790	187.879463023550	350.739596689165	1207.981210647421	437.545752964288	585.550362881019	1151.303696094735	326.592377014080	651.922691850507	1218.379135129037	237.389962970013	602.593544862839	1122.298947971719	50.717992548523	578.914848765116	1287.031377987966	125.733624263293	620.370359499499	1206.508923584685	49.619003943341	653.282557367857	1410.206872682194	86.349930009536	645.755319433585	828.448548027950	39.484641563827	390.999353754070	900.251789786104	35.951038129873	308.978401964922	985.068500184783	95.874215221041	335.413033332555	1112.313104670710	40.641663375709	301.762513001904	1124.839563834143	1085.064925749310	134.398625843431	1311.575329197566	912.952655028997	200.573668998845	997.755097781856	1096.485613380251	722.292914170849	1073.206740360686	849.033087477075	762.309703898284	
72	28.363285714286	881.203549725598	1011.944719793758	437.016808381120	1118.972012463948	1427.507988474728	274.134093655329	1189.090551108455	1353.251524148217	449.433554157367	1084.388996544708	1433.581932130727	608.591399025291	1079.450463048149	1492.192375386930	429.671652273346	1093.448009043987	944.419250857836	583.637386765996	1109.340418090598	952.905295798006	307.473248112775	1160.214832983651	761.551460189115	562.133866254953	1104.981341283553	645.748331248047	632.998326216797	1192.641619358994	601.771195345198	555.197427404604	1221.144481966804	521.532574769107	573.509160258210	1120.914987927352	731.935967274413	342.081791213277	1017.615768350961	631.889704791536	269.128703590045	1079.252089616444	542.089375215828	338.098600886337	1066.881608259476	474.053736280044	344.874386240604	1032.288382749750	406.959097493326	333.656241847322	930.577849742776	304.781506922377	281.027204112961	964.870434537831	187.452111030389	350.872244378862	1203.820339181362	434.207785259706	585.887445390895	1148.585806780441	322.097352670330	651.395923408689	1217.714605545469	234.246958140033	602.157727193083	1125.122067879971	46.727581956881	577.120906470886	1289.025796991997	123.882765838839	620.419592061379	1208.717591577240	46.667243569413	652.196191919742	1412.119552185604	84.942602369038	645.953091834472	823.077971545673	39.369770809307	390.982335784768	894.882790851396	35.870678526047	308.974342060098	979.693503569067	95.825987418416	335.421216889044	1106.949654913630	40.555113056395	301.745135634196	1126.900273859679	1084.315951270758	137.298438178066	1315.029487507333	914.076239079706	204.008512480289	999.041636810383	1094.597979758064	723.777447958868	1076.572718848517	847.316995900299	761.295496476137	
73	28.376571428571	883.031154861403	1010.264957077726	439.483504493701	1118.370187426872	1426.748748396385	276.941695800075	1189.240147077512	1352.677658884007	451.982290497768	1084.551686753436	1432.362212724472	611.469505327737	1079.074950818536	1491.167707125704	432.624998714863	1095.500890275909	942.614717415406	585.551688324805	1111.357349287156	952.578703545847	309.573042797930	1159.904327782965	757.371583338298	564.605376824515	1101.776546361477	642.159633399819	634.037703187319	1189.339799346900	597.618896945564	556.464264949757	1216.190660406157	518.073191748025	573.666220880993	1121.334337613329	730.465112771466	343.206032395761	1016.834303864808	631.218364712794	270.284478378591	1077.743676635711	540.760979588401	338.919052560915	1064.808478251664	472.722997849570	345.561848298819	1029.638676779765	406.004469344572	334.314896041223	926.914412322762	304.774276333330	281.516135512081	960.281591515540	186.981433426476	351.061205806452	1199.938685011661	430.693840783044	586.114448784727	1145.047867224255	317.981474694028	650.525814710439	1215.366245627104	230.962624699649	601.412251980640	1124.425148153546	44.037181475302	574.768420064018	1287.934895842312	121.469124740376	620.122027269534	1207.205644801031	44.143121941659	650.689336209255	1410.607798989863	81.556242057151	645.950126496495	817.694371188135	39.260564024783	390.963177185154	889.517388091078	35.788646341205	308.981203909372	974.331631670488	95.781147995881	335.436565612334	1101.601753119013	40.455134975393	301.712818595946	1128.508676672588	1083.564960413246	140.355073999679	1317.970402006383	914.970062920132	207.203136218510	1000.668424413608	1092.617291615430	725.656058081051	1080.379666869742	845.546150889183	760.546741523687	
74	28.389857142857	885.027289290904	1008.419681694949	442.223259801443	1117.456231258418	1426.041841392067	279.936482773764	1189.321699104278	1352.227219704479	454.641791926080	1084.715696668259	1431.110636973074	614.587787350686	1078.544461808301	1490.140738668182	435.837643890842	1097.841912561275	940.839996910132	587.531543279707	1113.798305150678	952.378958712350	311.658736213553	1160.494738970557	753.670848292283	567.122623700854	1099.567927311481	638.883970156994	634.928237070677	1187.278851333073	594.084310183272	557.766343446947	1212.350771479018	514.768024361774	573.867174163377	1122.153167382082	728.983893016984	344.377362173280	1016.438246583546	630.470019578291	271.654658607820	1076.766977016960	539.384175791823	339.887041893541	1063.332299774316	471.228459660764	346.391483137492	1027.394193746303	404.945836932494	335.114096643147	923.487685548630	304.838234258139	282.148227337793	955.815513243481	186.494767636431	351.298903121868	1196.577599544213	427.164361699296	586.237847134061	1141.149022209165	314.312402387198	649.500072651057	1211.817957370467	227.619969955201	600.454680522002	1120.833834634334	42.410167725821	572.185245231621	1284.267086575370	118.632909293562	619.509719388872	1202.740327299073	42.020294155078	648.993099745495	1406.445144570186	76.667337310102	645.733197747494	812.302809616337	39.213146096529	390.936962701725	884.162268774553	35.727357494806	308.996517191629	969.005361639313	95.746697071768	335.448655790966	1096.278322205030	40.339234368708	301.661439305648	1129.600512036879	1082.838247850871	143.549006058306	1320.341249554496	915.646272990679	210.100295159799	1002.632738680126	1090.580853520673	727.907102273873	1084.595083835891	843.765749069245	760.120613318389	
75	28.403142857143	887.129825293003	1006.507552570305	445.165398384296	1116.338359727421	1425.426424664055	283.114012328379	1189.371580100140	1351.915211379392	457.427798050531	1084.897726778881	1429.877119156132	617.932997391920	1077.919152810159	1489.162432824559	439.295355054334	1100.380757185175	939.190801724411	589.603096138708	1116.558792951318	952.290386410550	313.756735457367	1161.941567997644	750.577100114568	569.653428521858	1098.416257037699	636.053119700496	635.712779134420	1186.475614451833	591.276586947179	559.085862108091	1209.712355327271	511.766405465975	574.099741563911	1123.332990387322	727.545566792507	345.623790125918	1016.451749103781	629.666677370631	273.241055705553	1076.387862407642	537.996836681184	341.008266132765	1062.542956550066	469.584264643401	347.341624874843	1025.618892957602	403.805276426134	336.039940981896	920.344931753124	305.022769713496	282.927489324096	951.510582172404	186.033291046118	351.569093331905	1193.939129086682	423.795027252070	586.293185537141	1137.355277432659	311.169405673489	648.526173637916	1207.596351640009	224.352294680876	599.405269495110	1115.131470423031	41.602334011887	569.685499998120	1278.631372357752	115.587253424550	618.621542506989	1196.220840395507	40.297841324820	647.331319019603	1400.476334450192	70.921629121428	645.330420373756	806.916649781863	39.315670682014	390.897439611938	878.828950531544	35.725750373539	309.015696848655	963.749625591758	95.733442282831	335.441012240898	1090.989349894817	40.204580603308	301.586917116371	1130.126490202589	1082.168207316140	146.864456757957	1322.082384306570	916.108896428599	212.647790247818	1004.930611989454	1088.536485234510	730.489924335286	1089.187664506265	842.033875342306	760.061246827240	
